<svg xmlns="http://www.w3.org/2000/svg" width="24" height="24" viewBox="0 0 24 24"><path fill="currentColor" d="M19.74 6.69a4.26 4.26 0 0 0 1.7-2.38c-.75.5-1.58.85-2.46 1.05A3.73 3.73 0 0 0 16.13 4c-2.15 0-3.89 1.92-3.89 4.3 0 .33.04.66.1.97a10.75 10.75 0 0 1-8.02-4.48 4.61 4.61 0 0 0 1.2 5.73 3.6 3.6 0 0 1-1.76-.54v.05c0 2.08 1.34 3.82 3.12 4.21a3.56 3.56 0 0 1-1.75.07 3.97 3.97 0 0 0 3.63 2.98A7.36 7.36 0 0 1 3 19.07 10.29 10.29 0 0 0 8.97 21c7.16 0 11.07-6.54 11.07-12.21l-.01-.56a8.4 8.4 0 0 0 1.94-2.22c-.7.34-1.45.57-2.23.68z"></path></svg>